<svg width="1441" height="178" viewBox="0 0 1441 178" fill="none" xmlns="http://www.w3.org/2000/svg">
<path d="M1440.04 168.827C1384.25 176.485 1250.84 185.916 1167.47 163.541C1084.09 141.167 1056.63 111.04 1084.04 93.4988C1109.04 77.4988 1177.04 70.6283 1182.04 102.499C1186.99 134.112 1070.79 133.5 1037.72 134.499C934.035 137.631 768.035 97.4988 640.369 70.6283C309.25 0.936081 58.0637 4.58177 0.0351562 0.498779" stroke="#924DBF"/>
<path d="M1066.53 86.7605C1059.11 81.6347 1043.3 72.3149 1039.37 76.0427C1035.45 79.7706 1055.84 84.7412 1066.53 86.7605Z" stroke="#924DBF"/>
<path d="M1177.46 62.2555C1181.53 54.2102 1190.98 38.4703 1196.21 39.8725C1201.44 41.2748 1185.89 55.3788 1177.46 62.2555Z" stroke="#924DBF"/>
<path d="M1202.03 89.4174C1217.29 83.5245 1249.48 72.6075 1256.16 76.0825C1262.85 79.5575 1222.86 86.4203 1202.03 89.4174Z" stroke="#924DBF"/>
<path d="M1334.01 147.211C1334.01 147.189 1333.98 147.106 1333.78 146.99C1333.59 146.874 1333.29 146.767 1332.89 146.674C1332.09 146.489 1331.03 146.391 1329.9 146.327C1329.34 146.295 1328.77 146.272 1328.22 146.25C1327.67 146.228 1327.14 146.208 1326.66 146.181C1326.18 146.154 1325.73 146.121 1325.37 146.072C1325.02 146.026 1324.68 145.959 1324.44 145.834C1324.26 145.74 1324.13 145.592 1324.03 145.453C1323.94 145.31 1323.86 145.144 1323.79 144.969C1323.65 144.619 1323.54 144.179 1323.44 143.697C1323.24 142.731 1323.08 141.51 1322.93 140.33C1322.78 139.137 1322.63 137.988 1322.44 137.124C1322.35 136.689 1322.25 136.355 1322.16 136.134C1322.15 136.108 1322.13 136.085 1322.12 136.065C1322.11 136.081 1322.09 136.098 1322.07 136.118C1321.91 136.303 1321.72 136.598 1321.5 136.994C1321.07 137.779 1320.58 138.862 1320.11 139.983C1319.64 141.085 1319.18 142.252 1318.8 143.128C1318.61 143.571 1318.43 143.962 1318.28 144.256C1318.21 144.402 1318.13 144.535 1318.06 144.643C1318.02 144.706 1317.95 144.807 1317.85 144.89L1317.74 144.965C1317.59 145.052 1317.4 145.064 1317.3 145.068C1317.17 145.073 1317.03 145.067 1316.87 145.054C1316.55 145.028 1316.13 144.973 1315.67 144.902C1315.21 144.831 1314.69 144.743 1314.13 144.65C1313.58 144.558 1313 144.461 1312.42 144.37C1311.25 144.189 1310.11 144.039 1309.23 144.009C1308.79 143.994 1308.44 144.011 1308.19 144.058C1308.1 144.076 1308.04 144.098 1308 144.113C1308.01 144.146 1308.04 144.193 1308.07 144.255C1308.2 144.462 1308.41 144.73 1308.72 145.053C1309.34 145.693 1310.23 146.458 1311.16 147.243C1312.08 148.02 1313.05 148.817 1313.78 149.499C1314.15 149.84 1314.47 150.165 1314.71 150.456C1314.83 150.601 1314.93 150.749 1315.01 150.894C1315.09 151.033 1315.16 151.208 1315.17 151.4C1315.18 151.677 1315.08 152.002 1314.97 152.301C1314.84 152.62 1314.67 152.989 1314.46 153.382C1314.06 154.167 1313.53 155.094 1313.03 155.979C1312.52 156.875 1312.05 157.724 1311.75 158.382C1311.64 158.634 1311.56 158.841 1311.51 159.002C1311.71 158.945 1311.98 158.844 1312.31 158.699C1313.02 158.384 1313.92 157.909 1314.86 157.405C1315.8 156.905 1316.77 156.378 1317.59 155.979C1318 155.78 1318.39 155.607 1318.72 155.484C1319.04 155.367 1319.37 155.27 1319.64 155.273C1319.97 155.278 1320.3 155.447 1320.58 155.623C1320.88 155.812 1321.22 156.072 1321.57 156.365C1322.26 156.951 1323.06 157.72 1323.83 158.441C1324.61 159.173 1325.35 159.853 1325.97 160.298C1326.28 160.522 1326.52 160.665 1326.7 160.731C1326.76 160.751 1326.79 160.76 1326.82 160.764C1326.83 160.73 1326.86 160.662 1326.88 160.541C1326.91 160.329 1326.91 160.036 1326.88 159.667C1326.82 158.932 1326.64 157.999 1326.42 157.026C1326.31 156.543 1326.19 156.055 1326.08 155.583C1325.97 155.113 1325.86 154.656 1325.77 154.241C1325.67 153.827 1325.6 153.444 1325.55 153.122C1325.5 152.815 1325.47 152.51 1325.49 152.277C1325.52 152.065 1325.63 151.894 1325.73 151.77C1325.84 151.643 1325.98 151.527 1326.12 151.423C1326.41 151.214 1326.79 151.004 1327.21 150.795C1328.06 150.379 1329.18 149.923 1330.24 149.467C1331.31 149.003 1332.34 148.536 1333.08 148.083C1333.45 147.856 1333.71 147.65 1333.87 147.471C1334.03 147.288 1334.01 147.212 1334.01 147.211Z" stroke="#924DBF"/>
</svg>
