<svg width="1440" height="156" viewBox="0 0 1440 156" fill="none" xmlns="http://www.w3.org/2000/svg">
<path d="M0.0681152 147.344C49.3817 154.114 167.321 162.452 241.026 142.672C314.73 122.892 352.004 93.1285 360.751 65.7236C363.852 56.0103 365.172 32.8993 344.193 27.6715C310.5 19.2752 283.619 42.2476 283.619 51.9609C283.619 61.6743 295.064 64.3233 295.064 51.9609C295.064 37.8324 266.16 17.9325 234.863 27.8588C215.374 34.04 197.945 56.5609 217.539 81.6361C241.026 111.693 326.494 116.114 355.728 116.997C447.386 119.766 594.135 84.2882 706.995 60.534C999.713 -1.07588 1387.77 8.14701 1439.07 4.53754" stroke="#924DBF"/>
<path d="M369.153 34.8404C375.573 30.1159 389.305 21.4647 392.871 24.6555C396.437 27.8464 378.545 32.775 369.153 34.8404Z" stroke="#924DBF"/>
<path d="M367.824 71.6887C375.652 73.1907 391.329 77.3907 391.41 82.1753C391.491 86.9598 375.72 77.1778 367.824 71.6887Z" stroke="#924DBF"/>
<path d="M226.322 21.0015C222.723 13.8893 214.368 -0.0252697 209.746 1.21438C205.124 2.45403 218.871 14.9223 226.322 21.0015Z" stroke="#924DBF"/>
<path d="M235.732 102.572C229.951 108.061 219.02 120.058 221.533 124.129C224.047 128.201 232.046 111.454 235.732 102.572Z" stroke="#924DBF"/>
<path d="M203.861 42.667C190.372 37.4575 161.918 27.8066 156.009 30.8785C150.099 33.9505 185.448 40.0175 203.861 42.667Z" stroke="#924DBF"/>
<path d="M93.8515 128.246C93.852 128.244 93.8552 128.231 93.8758 128.207C93.9003 128.178 93.9462 128.137 94.0274 128.09C94.1946 127.992 94.4523 127.898 94.803 127.817C95.501 127.655 96.4388 127.568 97.4358 127.512C97.9305 127.484 98.4324 127.463 98.9189 127.444C99.4037 127.425 99.8751 127.406 100.302 127.382C100.727 127.359 101.119 127.329 101.444 127.286C101.749 127.245 102.063 127.185 102.286 127.069C102.457 126.98 102.579 126.841 102.665 126.714C102.753 126.583 102.825 126.431 102.886 126.274C103.009 125.96 103.112 125.567 103.2 125.14C103.376 124.284 103.515 123.202 103.649 122.16C103.786 121.105 103.919 120.091 104.081 119.33C104.16 118.959 104.241 118.675 104.321 118.485C104.456 118.644 104.62 118.895 104.805 119.231C105.187 119.922 105.614 120.877 106.032 121.868C106.443 122.84 106.858 123.875 107.191 124.649C107.359 125.041 107.515 125.388 107.65 125.649C107.717 125.779 107.784 125.899 107.85 125.998C107.887 126.054 107.953 126.149 108.048 126.228L108.151 126.3C108.301 126.385 108.475 126.396 108.565 126.399C108.681 126.404 108.816 126.398 108.958 126.386C109.243 126.363 109.609 126.313 110.016 126.251C110.426 126.188 110.89 126.11 111.378 126.029C111.867 125.947 112.38 125.861 112.893 125.781C113.924 125.621 114.93 125.489 115.706 125.463C116.096 125.45 116.401 125.464 116.61 125.505C116.65 125.512 116.682 125.523 116.708 125.53C116.699 125.548 116.689 125.57 116.676 125.593C116.572 125.77 116.382 126.003 116.109 126.287C115.567 126.851 114.784 127.525 113.959 128.22C113.145 128.906 112.29 129.611 111.64 130.215C111.315 130.517 111.027 130.807 110.815 131.067C110.709 131.197 110.613 131.331 110.54 131.463C110.489 131.558 110.436 131.674 110.41 131.802L110.394 131.935C110.383 132.193 110.477 132.492 110.58 132.756C110.69 133.041 110.846 133.369 111.025 133.717C111.382 134.412 111.855 135.234 112.297 136.016C112.745 136.807 113.16 137.556 113.422 138.134C113.499 138.305 113.557 138.452 113.599 138.573C113.438 138.521 113.238 138.442 113.003 138.338C112.376 138.061 111.582 137.641 110.75 137.195C109.926 136.754 109.066 136.287 108.338 135.934C107.973 135.757 107.63 135.604 107.333 135.494C107.052 135.391 106.753 135.302 106.498 135.305C106.193 135.309 105.886 135.466 105.637 135.622C105.367 135.791 105.068 136.023 104.761 136.283C104.147 136.802 103.437 137.484 102.758 138.121C102.068 138.768 101.411 139.367 100.873 139.758C100.601 139.955 100.389 140.077 100.239 140.132C100.22 140.139 100.203 140.141 100.19 140.145C100.18 140.115 100.169 140.071 100.16 140.01C100.132 139.829 100.131 139.575 100.158 139.251C100.213 138.606 100.373 137.785 100.566 136.925C100.662 136.498 100.764 136.067 100.863 135.65C100.962 135.234 101.059 134.83 101.141 134.463C101.223 134.096 101.292 133.757 101.337 133.47C101.379 133.198 101.409 132.922 101.382 132.706C101.356 132.503 101.254 132.342 101.158 132.228C101.058 132.111 100.933 132.005 100.804 131.912C100.546 131.724 100.205 131.536 99.8304 131.351C99.0798 130.982 98.093 130.578 97.1565 130.175C96.2029 129.765 95.2978 129.355 94.6526 128.957C94.3279 128.757 94.0999 128.578 93.9662 128.427C93.8287 128.271 93.8559 128.222 93.8515 128.246Z" stroke="#924DBF"/>
<path d="M623.918 34.5688C624.021 34.5222 624.181 34.5076 624.444 34.6053C624.71 34.7041 625.029 34.9 625.394 35.1916C626.124 35.7741 626.942 36.6585 627.765 37.6228C628.174 38.1021 628.58 38.595 628.972 39.0725C629.363 39.5483 629.741 40.0109 630.093 40.4234C630.443 40.8349 630.774 41.2067 631.071 41.4988C631.353 41.7775 631.652 42.0333 631.936 42.1558C632.135 42.2419 632.353 42.252 632.544 42.2387C632.742 42.2248 632.959 42.1819 633.182 42.1215C633.627 42.0008 634.157 41.7957 634.73 41.5443C635.878 41.0406 637.269 40.3188 638.623 39.617C639.988 38.9097 641.314 38.2234 642.362 37.7704C642.888 37.543 643.321 37.3845 643.641 37.3095C643.724 37.2898 643.794 37.278 643.85 37.271C643.842 37.3058 643.833 37.3472 643.818 37.3939C643.727 37.6768 643.54 38.0675 643.266 38.5473C642.721 39.4999 641.893 40.7051 641.023 41.9255C640.164 43.1297 639.247 44.3708 638.57 45.3318C638.229 45.8162 637.936 46.2474 637.728 46.5877C637.625 46.7569 637.536 46.9141 637.473 47.0502C637.441 47.1182 637.412 47.1903 637.39 47.2617C637.375 47.31 637.358 47.3787 637.353 47.4579L637.352 47.5396C637.364 47.742 637.475 47.9163 637.539 48.0102C637.62 48.1292 637.728 48.2587 637.848 48.3923C638.09 48.661 638.424 48.9892 638.808 49.3517C639.193 49.7158 639.638 50.1244 640.106 50.5531C640.574 50.9827 641.067 51.4343 641.551 51.8902C642.525 52.8063 643.449 53.7227 644.071 54.4907C644.384 54.877 644.601 55.2004 644.713 55.4506C644.784 55.6084 644.793 55.6905 644.793 55.7232C644.784 55.7288 644.772 55.7378 644.752 55.7462C644.685 55.7755 644.575 55.8052 644.415 55.8255C644.093 55.8661 643.647 55.8597 643.095 55.8107C641.995 55.713 640.582 55.4586 639.126 55.1808C637.683 54.9055 636.197 54.6065 634.987 54.434C634.382 54.3478 633.829 54.2908 633.373 54.2851C633.145 54.2822 632.929 54.2922 632.737 54.3219C632.552 54.3506 632.353 54.4034 632.183 54.5085C631.92 54.6713 631.661 54.9643 631.422 55.2814C631.171 55.6132 630.9 56.0285 630.62 56.4867C630.061 57.4024 629.438 58.5355 628.835 59.614C628.227 60.7022 627.641 61.7322 627.139 62.4715C626.887 62.8436 626.671 63.1194 626.499 63.2882C626.483 63.3033 626.467 63.3148 626.453 63.3271C626.445 63.3083 626.436 63.2879 626.427 63.265C626.342 63.0413 626.264 62.7074 626.191 62.2747C626.048 61.4146 625.947 60.2698 625.851 59.0687C625.755 57.8786 625.663 56.6362 625.534 55.6158C625.47 55.1053 625.395 54.6366 625.302 54.2497C625.213 53.8831 625.094 53.5167 624.903 53.27C624.784 53.1155 624.623 53.0023 624.467 52.9169C624.307 52.8289 624.121 52.7539 623.923 52.687C623.527 52.5532 623.034 52.439 622.494 52.3369C621.413 52.1325 620.066 51.9616 618.784 51.7843C617.487 51.6049 616.259 51.4193 615.368 51.1841C614.919 51.0653 614.594 50.944 614.398 50.826C614.337 50.7899 614.302 50.7608 614.28 50.7413C614.305 50.6942 614.367 50.5991 614.525 50.4593C614.744 50.2657 615.069 50.0471 615.487 49.8096C616.32 49.3363 617.442 48.8321 618.619 48.3366C619.205 48.0898 619.801 47.8474 620.376 47.6132C620.949 47.3795 621.504 47.1534 622.005 46.9424C622.504 46.7318 622.957 46.5331 623.326 46.3524C623.683 46.1777 624.004 46.0003 624.209 45.8279C624.379 45.6848 624.477 45.4959 624.537 45.3182C624.597 45.1389 624.629 44.9394 624.643 44.7369C624.672 44.3332 624.638 43.8428 624.575 43.3154C624.449 42.2609 624.185 40.9401 623.958 39.6656C623.726 38.3707 623.532 37.1185 623.519 36.1383C623.513 35.6469 623.554 35.2595 623.64 34.9828C623.725 34.7078 623.833 34.6077 623.918 34.5688Z" stroke="#924DBF"/>
</svg>
