<svg width="200" height="41" viewBox="0 0 200 41" fill="none" xmlns="http://www.w3.org/2000/svg">
<path d="M11.4073 1.19309C13.2542 -0.566899 16.1449 -0.147534 18.2044 0.959152C18.6895 1.21986 19.1503 1.52838 19.565 1.87486C20.4525 1.11979 21.586 0.521847 22.9462 0.219638C22.96 0.216557 22.974 0.213875 22.9881 0.211618C24.5022 -0.0318919 25.7889 0.107773 26.7399 0.813843C27.6926 1.52125 28.1384 2.67081 28.2742 4.05904C28.2763 4.08059 28.2774 4.10223 28.2774 4.12388C28.2774 5.95892 27.9508 7.82746 27.036 9.46223C28.1439 8.96794 29.2288 8.45048 30.1583 8.09415C31.2546 7.67389 32.3886 7.36784 33.3895 7.63964C35.156 8.11938 36.2473 9.30227 36.7395 10.8807C37.2192 12.4189 37.1299 14.3153 36.6485 16.3253C36.4106 17.3187 35.9326 18.1085 35.3225 18.7356C35.9199 19.1379 36.392 19.6296 36.6232 20.2379C37.3588 22.1729 37.7116 25.307 37.596 28.1382C37.5379 29.5616 37.3603 30.9458 37.0361 32.0949C36.7218 33.2089 36.2309 34.2455 35.4376 34.7963C34.7346 35.2845 33.7358 35.6159 32.6122 35.8561C31.4729 36.0998 30.1329 36.2641 28.6948 36.3791C25.8209 36.6089 22.4754 36.6472 19.4291 36.703C16.5918 36.755 12.6982 36.6344 9.29687 36.337C7.59696 36.1883 6.00546 35.9943 4.72389 35.7523C4.08365 35.6313 3.5079 35.496 3.02868 35.344C2.56487 35.1969 2.12965 35.0153 1.81865 34.7757C1.46415 34.5026 1.2155 34.0702 1.03059 33.6368C0.837063 33.1832 0.674876 32.6344 0.540613 32.0356C0.271617 30.8358 0.0989929 29.3645 0.0318174 27.8958C-0.0353626 26.427 0.00176874 24.9342 0.163 23.6912C0.24352 23.0704 0.357071 22.4955 0.511217 22.0099C0.660145 21.5408 0.869098 21.0819 1.18485 20.7612L1.22812 20.7195C1.45 20.516 1.75014 20.3919 2.01205 20.3066C2.316 20.2076 2.68433 20.1258 3.09448 20.0563C3.91687 19.917 4.98166 19.8147 6.19368 19.74C8.622 19.5904 11.7138 19.5469 14.7968 19.5546C17.8827 19.5624 20.9723 19.6215 23.4003 19.6787C25.8426 19.7362 27.5877 19.7908 28.023 19.7908C28.878 19.7908 30.5356 19.6922 32.0696 19.1433C32.2216 19.0889 32.371 19.0303 32.5175 18.9678C31.5791 18.6711 30.47 18.4274 29.262 18.2309C26.0224 17.7041 22.2094 17.5389 19.4158 17.5389C16.6451 17.5389 12.998 17.9607 9.78657 18.2462C8.19791 18.3874 6.71241 18.495 5.52898 18.4917C4.93809 18.4901 4.39896 18.4609 3.94833 18.3876C3.52382 18.3185 3.0661 18.1943 2.73871 17.9235C1.83584 17.1766 1.35892 15.8685 1.3137 14.6285C1.26815 13.3793 1.65411 11.9873 2.75107 11.1212C3.43879 10.5782 4.28101 10.6035 5.07472 10.7641C5.86289 10.9237 6.8355 11.27 7.90482 11.6121C10.0903 12.3112 13.0399 13.1227 17.0647 12.9538C17.7772 12.9239 18.4391 12.8623 19.0541 12.7728C18.3623 12.7408 17.6553 12.6501 16.9354 12.487C13.1255 11.6239 11.0582 9.42092 10.2919 7.0949C9.55125 4.84664 10.0269 2.41544 11.4073 1.19309ZM34.1783 19.6515C33.6603 19.9768 33.1062 20.2309 32.555 20.4281C30.7987 21.0565 28.9531 21.1597 28.023 21.1597C27.5656 21.1597 25.7753 21.1039 23.3662 21.0471C20.9426 20.9901 17.8645 20.9312 14.7932 20.9235C11.7189 20.9158 8.66391 20.9595 6.28256 21.1062C5.08974 21.1797 4.08389 21.2781 3.33583 21.4049C2.9608 21.4684 2.66896 21.5362 2.45849 21.6047C2.24964 21.6727 2.19024 21.7201 2.19557 21.7135C2.1071 21.8064 1.97989 22.0206 1.85505 22.4139C1.7331 22.798 1.6329 23.2888 1.55848 23.8626C1.40983 25.0086 1.37223 26.4205 1.43691 27.8348C1.50161 29.2493 1.66745 30.64 1.91494 31.7438C2.03891 32.2967 2.1795 32.7601 2.32964 33.112C2.48838 33.484 2.62427 33.6506 2.69173 33.7026C2.80271 33.7881 3.04468 33.9093 3.46454 34.0425C3.86898 34.1708 4.38357 34.2935 4.99189 34.4084C6.20752 34.638 7.74637 34.827 9.42269 34.9736C12.7738 35.2666 16.6166 35.3854 19.4026 35.3344C22.4715 35.2782 25.7613 35.2401 28.5796 35.0148C29.9876 34.9022 31.2579 34.7442 32.3103 34.5192C33.3782 34.2908 34.1524 34.0072 34.6207 33.682C34.9987 33.4195 35.3831 32.7835 35.6796 31.7325C35.9663 30.7167 36.135 29.4435 36.1905 28.0839C36.3021 25.349 35.9509 22.4145 35.304 20.7128C35.1742 20.3715 34.8189 20.007 34.1783 19.6515ZM33.0115 8.95826C32.5003 8.81942 31.7609 8.95115 30.6738 9.36785C29.5928 9.78224 28.4199 10.3687 26.9862 10.9864C26.4162 11.232 25.8179 11.4757 25.1943 11.7015C23.4254 13.2057 20.8145 14.1665 17.1252 14.3213C12.8582 14.5004 9.72406 13.635 7.46553 12.9125C6.31291 12.5438 5.47344 12.2431 4.78831 12.1044C4.10873 11.9668 3.81643 12.0428 3.63734 12.1842C3.00071 12.6869 2.68329 13.5877 2.71948 14.58C2.75601 15.5816 3.14596 16.4638 3.64971 16.8805C3.65002 16.8807 3.65248 16.8827 3.65754 16.886C3.663 16.8895 3.67117 16.8944 3.68254 16.9004C3.70573 16.9126 3.73923 16.9277 3.78556 16.944C3.87983 16.9772 4.00952 17.0097 4.1802 17.0374C4.52327 17.0932 4.97675 17.1213 5.53296 17.1229C6.64382 17.126 8.07095 17.024 9.65855 16.8829C12.7996 16.6037 16.56 16.17 19.4158 16.17C22.2486 16.17 26.1473 16.3365 29.4939 16.8808C31.1639 17.1523 32.731 17.5232 33.9682 18.0312C33.987 18.0389 34.0057 18.0468 34.0244 18.0546C34.6248 17.5352 35.0738 16.8693 35.2785 16.0147C35.7315 14.1234 35.7729 12.4949 35.3935 11.2783C35.0267 10.1018 34.2693 9.29985 33.0115 8.95826ZM17.5244 2.15745C15.6626 1.15701 13.5594 1.05033 12.3843 2.17804C12.3767 2.18525 12.369 2.19229 12.3612 2.19916C11.5025 2.9521 11.0018 4.76602 11.6314 6.67702C12.2375 8.51697 13.8967 10.393 17.2544 11.1537C19.8232 11.7356 22.2389 11.2801 24.4544 10.5068C24.6186 10.3569 24.7723 10.2025 24.9157 10.0437C26.3381 8.46869 26.8654 6.37776 26.8705 4.15636C26.7486 2.96369 26.3879 2.27439 25.8866 1.90213C25.3816 1.52719 24.5659 1.34872 23.2389 1.55884C22.1424 1.80583 21.2396 2.28062 20.5346 2.86876C20.6328 2.99481 20.7248 3.12361 20.8096 3.25509C21.4113 4.18759 21.6866 5.30003 21.2725 6.41059C20.8892 7.43865 19.8927 8.03624 18.9618 7.99456C18.48 7.97298 17.9884 7.77473 17.6556 7.34314C17.3262 6.91608 17.2249 6.35572 17.3126 5.74086C17.4495 4.78069 17.8858 3.77186 18.5994 2.8725C18.2781 2.60964 17.9157 2.36771 17.5244 2.15745ZM19.5654 3.90344C19.0868 4.5649 18.799 5.27558 18.7059 5.92895C18.653 6.29988 18.7362 6.46386 18.7806 6.52142C18.8215 6.57442 18.8928 6.62117 19.0265 6.62716C19.3264 6.64055 19.7714 6.4234 19.9503 5.94379C20.1766 5.33664 20.0596 4.66695 19.6184 3.98311C19.6012 3.95647 19.5834 3.92996 19.5654 3.90344Z" fill="#924DBF"/>
<path d="M183.634 40.1567C182.931 40.1567 182.279 40.1035 181.68 39.997C181.09 39.8994 180.619 39.7841 180.267 39.651L181.466 35.8977C182.217 36.1018 182.888 36.1994 183.477 36.1905C184.067 36.1816 184.586 36.0086 185.033 35.6714C185.489 35.3431 185.874 34.793 186.188 34.0211L186.631 32.9164L178.683 12.047H184.162L189.213 27.4861H189.442L194.507 12.047H200L191.225 34.966C190.816 36.0485 190.274 36.9758 189.598 37.7477C188.923 38.5285 188.096 39.123 187.116 39.5312C186.146 39.9482 184.985 40.1567 183.634 40.1567Z" fill="#111827"/>
<path d="M167.085 33.2727C164.848 33.2727 162.911 32.8311 161.271 31.9478C159.631 31.0645 158.359 29.8288 157.454 28.2407C156.56 26.6525 156.113 24.7967 156.113 22.6733C156.113 20.5498 156.56 18.6895 157.454 17.0925C158.359 15.4954 159.631 14.2552 161.271 13.372C162.911 12.4887 164.848 12.047 167.085 12.047C169.321 12.047 171.259 12.4887 172.898 13.372C174.538 14.2552 175.805 15.4954 176.7 17.0925C177.604 18.6895 178.056 20.5498 178.056 22.6733C178.056 24.7967 177.604 26.6525 176.7 28.2407C175.805 29.8288 174.538 31.0645 172.898 31.9478C171.259 32.8311 169.321 33.2727 167.085 33.2727ZM167.114 29.3916C168.327 29.3916 169.341 29.0927 170.155 28.4949C170.97 27.8882 171.577 27.0763 171.974 26.0592C172.382 25.0421 172.585 23.909 172.585 22.6599C172.585 21.4019 172.382 20.2643 171.974 19.2472C171.577 18.2211 170.97 17.4048 170.155 16.7981C169.341 16.1913 168.327 15.888 167.114 15.888C165.872 15.888 164.839 16.1913 164.014 16.7981C163.199 17.4048 162.588 18.2211 162.18 19.2472C161.783 20.2643 161.584 21.4019 161.584 22.6599C161.584 23.909 161.783 25.0421 162.18 26.0592C162.588 27.0763 163.199 27.8882 164.014 28.4949C164.839 29.0927 165.872 29.3916 167.114 29.3916Z" fill="#111827"/>
<path d="M148.264 5.16299H153.605V24.6611C153.595 26.4484 153.189 27.9875 152.386 29.2783C151.583 30.5601 150.46 31.5486 149.019 32.2436C147.587 32.9297 145.918 33.2727 144.012 33.2727C142.27 33.2727 140.703 32.9839 139.31 32.4061C137.926 31.8194 136.828 30.9528 136.015 29.8064C135.203 28.66 134.796 27.2337 134.796 25.5276H140.151C140.161 26.2769 140.335 26.9223 140.674 27.4639C141.022 28.0055 141.501 28.4208 142.111 28.7096C142.72 28.9985 143.422 29.1429 144.215 29.1429C145.076 29.1429 145.807 28.9759 146.406 28.6419C147.006 28.2989 147.461 27.7934 147.771 27.1254C148.09 26.4574 148.254 25.636 148.264 24.6611V5.16299Z" fill="#111827"/>
<path d="M121.16 33.8945C118.998 33.8945 117.128 33.4345 115.549 32.5144C113.97 31.5851 112.748 30.3016 111.884 28.6638C111.029 27.0169 110.602 25.1216 110.602 22.9778C110.602 20.8432 111.029 18.9478 111.884 17.2917C112.748 15.6264 113.94 14.3244 115.458 13.386C116.987 12.4383 118.752 11.9644 120.753 11.9644C122.01 11.9644 123.221 12.1761 124.388 12.5993C125.554 13.0133 126.6 13.6528 127.525 14.5177C128.46 15.3733 129.199 16.4544 129.742 17.7609C130.285 19.0582 130.557 20.5948 130.557 22.3705V23.585H112.457V21.4182H127.812C127.812 20.0565 127.51 18.8328 126.907 17.7471C126.313 16.6522 125.484 15.7874 124.418 15.1525C123.362 14.5177 122.14 14.2002 120.753 14.2002C119.284 14.2002 117.992 14.5591 116.876 15.2767C115.76 15.9944 114.885 16.9421 114.252 18.1198C113.628 19.2975 113.312 20.5856 113.301 21.9841V23.2814C113.301 24.9651 113.618 26.4373 114.252 27.6978C114.895 28.9491 115.805 29.9198 116.982 30.6098C118.158 31.2999 119.551 31.6449 121.16 31.6449C122.256 31.6449 123.216 31.4885 124.041 31.1757C124.875 30.8628 125.574 30.4442 126.137 29.9198C126.71 29.3861 127.143 28.8019 127.434 28.167L129.984 28.9261C129.632 29.8185 129.053 30.642 128.249 31.3965C127.455 32.1509 126.459 32.7582 125.262 33.2182C124.076 33.6691 122.708 33.8945 121.16 33.8945Z" fill="black"/>
<path d="M108.087 5.18811V33.4529H105.402V5.18811H108.087Z" fill="black"/>
<path d="M102.205 12.2543V14.3935H91.1489V12.2543H102.205ZM94.603 7.17548H97.3029V27.9186C97.3029 28.8019 97.4688 29.4965 97.8006 30.0026C98.1325 30.4994 98.5649 30.8537 99.0978 31.0653C99.6307 31.2677 100.199 31.3689 100.802 31.3689C101.154 31.3689 101.456 31.3505 101.707 31.3137C101.959 31.2677 102.18 31.2217 102.371 31.1757L102.944 33.3977C102.683 33.4897 102.361 33.5725 101.979 33.6461C101.597 33.7289 101.124 33.7703 100.561 33.7703C99.5754 33.7703 98.6252 33.5725 97.7101 33.1769C96.8051 32.7812 96.061 32.1924 95.4778 31.4103C94.8946 30.6282 94.603 29.6576 94.603 28.4983V7.17548Z" fill="black"/>
<path d="M90.38 12.2543V14.3935H79.324V12.2543H90.38ZM82.778 7.17548H85.4779V27.9186C85.4779 28.8019 85.6438 29.4965 85.9757 30.0026C86.3075 30.4994 86.7399 30.8537 87.2728 31.0653C87.8058 31.2677 88.3739 31.3689 88.9772 31.3689C89.3292 31.3689 89.6309 31.3505 89.8822 31.3137C90.1336 31.2677 90.3548 31.2217 90.5459 31.1757L91.1191 33.3977C90.8576 33.4897 90.5358 33.5725 90.1537 33.6461C89.7716 33.7289 89.299 33.7703 88.7359 33.7703C87.7505 33.7703 86.8002 33.5725 85.8852 33.1769C84.9802 32.7812 84.2361 32.1924 83.6529 31.4103C83.0696 30.6282 82.778 29.6576 82.778 28.4983V7.17548Z" fill="black"/>
<path d="M74.8525 33.4529V12.2543H77.5524V33.4529H74.8525ZM76.2251 8.61077C75.672 8.61077 75.1994 8.44055 74.8072 8.10012C74.4151 7.75049 74.219 7.33186 74.219 6.84422C74.219 6.35658 74.4151 5.94254 74.8072 5.60211C75.1994 5.25248 75.672 5.07767 76.2251 5.07767C76.7781 5.07767 77.2507 5.25248 77.6429 5.60211C78.0351 5.94254 78.2311 6.35658 78.2311 6.84422C78.2311 7.33186 78.0351 7.75049 77.6429 8.10012C77.2507 8.44055 76.7781 8.61077 76.2251 8.61077Z" fill="black"/>
<path d="M54.8862 33.4529V5.18811H57.7068V31.1343H72.428V33.4529H54.8862Z" fill="black"/>
</svg>
