<svg width="391" height="91" viewBox="0 0 391 91" fill="none" xmlns="http://www.w3.org/2000/svg">
<path d="M390.603 87.4894C363.981 91.1237 309.564 91.484 269.775 80.8655C229.985 70.247 216.877 55.9496 229.958 47.6249C241.889 40.0317 274.341 36.7711 276.727 51.8961C279.094 66.899 223.491 69.2498 207.853 67.0825C145.849 58.4894 61.0298 13.2415 0.10252 0.48938" stroke="#924DBF"/>
<path d="M221.37 44.4265C217.831 41.9939 210.286 37.571 208.414 39.3401C206.542 41.1092 216.271 43.4682 221.37 44.4265Z" stroke="#924DBF"/>
<path d="M274.285 32.7973C276.228 28.9792 280.736 21.5094 283.23 22.1749C285.724 22.8403 278.306 29.5338 274.285 32.7973Z" stroke="#924DBF"/>
<path d="M286.007 45.6877C293.285 42.8911 308.639 37.7101 311.827 39.3593C315.016 41.0084 295.942 44.2654 286.007 45.6877Z" stroke="#924DBF"/>
<path d="M348.369 73.1167C348.013 73.0345 347.524 72.9883 346.987 72.9579C346.723 72.9429 346.454 72.9322 346.191 72.9218C345.93 72.9115 345.673 72.9018 345.441 72.8889C345.21 72.8761 344.992 72.8595 344.807 72.835C344.643 72.8131 344.437 72.7772 344.277 72.6948C344.138 72.6228 344.046 72.5144 343.988 72.4286C343.927 72.3394 343.881 72.2412 343.844 72.1478C343.77 71.9612 343.713 71.7348 343.664 71.5009C343.567 71.0308 343.49 70.4403 343.418 69.8838C343.347 69.3414 343.28 68.8316 343.2 68.4411C343.007 68.7968 342.789 69.2786 342.573 69.7883C342.355 70.3009 342.126 70.8702 341.947 71.2833C341.856 71.4946 341.768 71.6865 341.692 71.8346C341.654 71.9078 341.613 71.9812 341.571 72.0444C341.551 72.0744 341.5 72.1499 341.42 72.2171L341.329 72.279C341.196 72.3533 341.053 72.3595 341.004 72.3614C340.928 72.3644 340.845 72.3595 340.765 72.353C340.602 72.34 340.398 72.3132 340.177 72.2795C339.954 72.2455 339.702 72.2035 339.439 72.1598C339.175 72.1158 338.9 72.0694 338.624 72.0268C338.069 71.9409 337.538 71.8724 337.135 71.8587C337.103 71.8576 337.072 71.8594 337.043 71.8591C337.058 71.8748 337.073 71.8925 337.089 71.9091C337.371 72.2015 337.784 72.5554 338.23 72.9294C338.666 73.2946 339.135 73.6793 339.491 74.0086C339.669 74.1731 339.833 74.3377 339.958 74.4898C340.02 74.5657 340.082 74.6492 340.13 74.7373C340.164 74.7987 340.204 74.8841 340.225 74.9859L340.237 75.0928C340.245 75.2842 340.178 75.4843 340.122 75.6275C340.058 75.7915 339.97 75.9762 339.872 76.1659C339.676 76.5446 339.418 76.9913 339.181 77.4079C339.013 77.7022 338.858 77.9807 338.733 78.2232C339.02 78.0861 339.354 77.9089 339.707 77.7208C340.149 77.4852 340.618 77.2327 341.016 77.0404C341.216 76.9442 341.408 76.8575 341.579 76.7948C341.694 76.7524 341.833 76.7072 341.973 76.6883L342.112 76.679L342.198 76.6855C342.396 76.7109 342.574 76.8095 342.695 76.8846C342.854 76.984 343.025 77.1162 343.194 77.2583C343.531 77.542 343.921 77.9154 344.284 78.2535C344.658 78.6024 345.002 78.9137 345.279 79.1137C345.288 79.1201 345.297 79.1256 345.305 79.1316C345.303 79.1054 345.303 79.0772 345.301 79.0479C345.273 78.7187 345.19 78.2906 345.086 77.8303C345.035 77.6029 344.979 77.373 344.926 77.149C344.872 76.9265 344.82 76.7077 344.775 76.5086C344.731 76.3104 344.692 76.1221 344.667 75.9606C344.644 75.8143 344.623 75.6373 344.641 75.4863C344.663 75.3148 344.749 75.1871 344.816 75.1084C344.886 75.0261 344.969 74.957 345.046 74.9008C345.202 74.7884 345.4 74.6808 345.606 74.5802C346.017 74.3787 346.56 74.1577 347.059 73.9442C347.575 73.7235 348.048 73.509 348.38 73.3054C348.459 73.2569 348.524 73.2138 348.575 73.1751C348.519 73.1562 348.451 73.1357 348.369 73.1167Z" stroke="#924DBF"/>
</svg>
