<svg width="397" height="82" viewBox="0 0 397 82" fill="none" xmlns="http://www.w3.org/2000/svg">
<path d="M0.0681152 76.6868C26.1814 80.2717 88.6343 84.6867 127.663 74.2126C166.693 63.7384 186.43 47.9777 191.062 33.4659C192.704 28.3223 193.403 16.0843 182.294 13.316C164.452 8.86987 150.218 21.0345 150.218 26.1781C150.218 31.3216 156.279 32.7244 156.279 26.1781C156.279 18.6965 140.973 8.15887 124.4 13.4151C114.08 16.6883 104.851 28.6139 115.226 41.8921C127.663 57.8083 172.922 60.1494 188.402 60.617C236.938 62.0831 336.805 25.9938 396.568 13.4151" stroke="#924DBF"/>
<path d="M198.511 18.4492C201.911 15.9474 209.183 11.3662 211.071 13.0559C212.959 14.7456 203.485 17.3554 198.511 18.4492Z" stroke="#924DBF"/>
<path d="M197.807 37.9617C201.953 38.757 210.254 40.9811 210.297 43.5147C210.34 46.0483 201.988 40.8684 197.807 37.9617Z" stroke="#924DBF"/>
<path d="M122.877 11.121C120.971 7.35487 116.547 -0.0133687 114.1 0.643068C111.652 1.2995 118.932 7.9019 122.877 11.121Z" stroke="#924DBF"/>
<path d="M127.86 54.3155C124.799 57.2222 119.01 63.5746 120.341 65.7307C121.673 67.8868 125.908 59.0189 127.86 54.3155Z" stroke="#924DBF"/>
<path d="M110.983 22.5937C103.841 19.8351 88.7732 14.7246 85.6439 16.3513C82.5146 17.978 101.233 21.1907 110.983 22.5937Z" stroke="#924DBF"/>
<path d="M53.2868 67.9125C53.6351 67.8317 54.1138 67.7866 54.6406 67.7566C54.9002 67.7419 55.1642 67.7307 55.4219 67.7204C55.6779 67.7102 55.9304 67.7014 56.1586 67.6887C56.3854 67.676 56.6 67.6594 56.7811 67.6352C56.9425 67.6136 57.1455 67.578 57.3037 67.496C57.4422 67.4241 57.5334 67.3156 57.5908 67.2306C57.6505 67.142 57.6969 67.045 57.7332 66.9525C57.8056 66.768 57.8619 66.5441 57.9095 66.3131C58.0051 65.8491 58.0804 65.2667 58.1515 64.7179C58.2194 64.194 58.285 63.7019 58.3609 63.3203C58.547 63.6684 58.755 64.1334 58.9625 64.6247C59.176 65.1299 59.4017 65.6911 59.5767 66.0985C59.6663 66.3069 59.7516 66.4969 59.8269 66.6432C59.8642 66.7156 59.9053 66.7882 59.9474 66.851C59.9673 66.8806 60.0169 66.9555 60.0967 67.0226L60.1871 67.0855C60.3204 67.1602 60.4632 67.1653 60.5116 67.1672C60.5867 67.1701 60.6684 67.1667 60.7475 67.1604C60.9076 67.1475 61.1084 67.1197 61.3252 67.0864C61.5439 67.0529 61.7918 67.0119 62.0494 66.9688C62.3084 66.9254 62.5788 66.8796 62.8488 66.8376C63.3939 66.7529 63.9145 66.6858 64.3097 66.6723C64.3337 66.6715 64.357 66.673 64.3793 66.6726C64.3682 66.6844 64.3581 66.6977 64.3463 66.7101C64.0692 66.9983 63.6637 67.3473 63.2253 67.7165C62.7975 68.0766 62.3384 68.4564 61.9887 68.7814C61.8142 68.9436 61.6521 69.1054 61.5296 69.2557C61.4684 69.3308 61.4083 69.4144 61.3605 69.5018C61.3273 69.5626 61.2871 69.6472 61.2669 69.7484L61.2546 69.8545C61.2467 70.0443 61.3136 70.2426 61.3685 70.3841C61.4315 70.546 61.5184 70.728 61.6144 70.9151C61.8064 71.2888 62.0602 71.7298 62.2928 72.1406C62.4529 72.4237 62.6005 72.6924 62.7216 72.9271C62.4458 72.7936 62.1262 72.6231 61.789 72.4424C61.3554 72.21 60.8948 71.96 60.5033 71.7702C60.3073 71.6752 60.1179 71.5898 59.95 71.5277C59.8367 71.4859 59.699 71.4416 59.5604 71.4228L59.423 71.4135L59.3375 71.4191C59.1401 71.4445 58.9637 71.5435 58.8454 71.6177C58.6885 71.7161 58.5206 71.8464 58.3547 71.9866C58.0233 72.2666 57.6407 72.6345 57.2851 72.968C56.918 73.3122 56.5808 73.6191 56.3095 73.8161C56.3065 73.8183 56.3033 73.8202 56.3004 73.8224C56.3017 73.802 56.3017 73.7806 56.3036 73.7584C56.3311 73.4339 56.4124 73.012 56.5142 72.5578C56.5645 72.3334 56.6183 72.1069 56.671 71.8858C56.7233 71.6662 56.7751 71.4505 56.8191 71.2539C56.8627 71.0585 56.9009 70.873 56.9259 70.7136C56.9485 70.5692 56.9694 70.393 56.9508 70.2432C56.9294 70.0727 56.844 69.9456 56.7778 69.8673C56.7085 69.7854 56.626 69.7175 56.5495 69.6618C56.3963 69.5504 56.2015 69.4437 55.9995 69.3444C55.5949 69.1454 55.0614 68.9273 54.5722 68.7168C54.0659 68.499 53.6024 68.2871 53.2775 68.0867C53.2056 68.0423 53.1465 68.002 53.0986 67.9662C53.1505 67.949 53.2125 67.9297 53.2868 67.9125Z" stroke="#924DBF"/>
<path d="M333.615 10.5452C333.722 10.5851 333.868 10.6721 334.053 10.8192C334.42 11.1126 334.842 11.566 335.277 12.0756C335.492 12.3272 335.705 12.5862 335.913 12.839C336.119 13.0904 336.321 13.3377 336.509 13.5582C336.696 13.7776 336.876 13.9805 337.04 14.1425C337.191 14.2909 337.376 14.455 337.57 14.5388C337.725 14.6057 337.884 14.6103 338.002 14.602C338.128 14.5933 338.258 14.5665 338.385 14.5323C338.637 14.4638 338.931 14.3491 339.238 14.2142C339.854 13.9438 340.598 13.5577 341.313 13.1872C342.038 12.8113 342.733 12.4526 343.278 12.2167C343.381 12.1725 343.475 12.1352 343.56 12.1026C343.529 12.1616 343.498 12.2276 343.459 12.2955C343.177 12.7886 342.745 13.4181 342.285 14.064C341.835 14.694 341.341 15.3625 340.984 15.8693C340.803 16.1265 340.644 16.3606 340.53 16.5478C340.474 16.6404 340.421 16.7319 340.383 16.8155C340.363 16.8571 340.343 16.9058 340.327 16.9576C340.317 16.9912 340.302 17.0475 340.297 17.116L340.298 17.1877C340.308 17.3653 340.402 17.505 340.437 17.5556C340.488 17.6311 340.553 17.7087 340.619 17.7826C340.754 17.9323 340.937 18.1116 341.141 18.3041C341.346 18.4984 341.584 18.7162 341.831 18.9428C342.08 19.1705 342.339 19.4091 342.594 19.6494C343.11 20.134 343.588 20.6097 343.907 21.0029C344.013 21.1339 344.092 21.2452 344.147 21.3357C344.008 21.3438 343.823 21.3395 343.594 21.3191C343.025 21.2686 342.288 21.1365 341.516 20.9891C340.756 20.8442 339.961 20.6839 339.313 20.5916C338.989 20.5454 338.684 20.5135 338.428 20.5103C338.3 20.5087 338.172 20.5143 338.053 20.5327C337.94 20.5501 337.799 20.5843 337.67 20.6636C337.491 20.7747 337.332 20.9621 337.203 21.1323C337.064 21.3168 336.917 21.5436 336.767 21.7887C336.467 22.2787 336.134 22.8849 335.817 23.4531C335.494 24.0308 335.188 24.567 334.929 24.9486C334.91 24.9768 334.889 25.0022 334.871 25.0277C334.866 24.999 334.859 24.9692 334.854 24.9379C334.78 24.4941 334.728 23.8981 334.677 23.2601C334.626 22.6333 334.577 21.9681 334.508 21.421C334.473 21.1472 334.431 20.889 334.379 20.6719C334.343 20.5245 334.294 20.3546 334.215 20.2057L334.126 20.0647L334.054 19.9838C333.979 19.9094 333.895 19.8555 333.822 19.8157C333.721 19.7602 333.609 19.7145 333.496 19.6765C333.271 19.6004 332.997 19.5373 332.707 19.4825C332.128 19.3729 331.406 19.2818 330.732 19.1886C330.043 19.0933 329.406 18.9965 328.951 18.8762C328.86 18.8521 328.782 18.827 328.717 18.8046C328.808 18.738 328.925 18.6628 329.07 18.5808C329.498 18.3376 330.081 18.0747 330.703 17.8127C331.012 17.6826 331.326 17.5546 331.631 17.4305C331.934 17.307 332.229 17.1873 332.496 17.0749C332.762 16.9629 333.007 16.8552 333.208 16.7565C333.397 16.6639 333.59 16.559 333.723 16.4473C333.857 16.3345 333.929 16.1908 333.969 16.0719C334.009 15.9516 334.028 15.825 334.036 15.7064C334.053 15.4701 334.034 15.1927 334 14.9088C333.932 14.3414 333.79 13.6291 333.671 12.9623C333.548 12.2753 333.449 11.6302 333.442 11.1331C333.439 10.8834 333.461 10.7063 333.496 10.5941C333.507 10.5581 333.518 10.5366 333.526 10.5235C333.542 10.525 333.571 10.5288 333.615 10.5452Z" stroke="#924DBF"/>
</svg>
